<svg viewBox="0 0 202 49" fill="none" xmlns="http://www.w3.org/2000/svg">
<path d="M103.868 25.3453C103.868 27.6745 103.437 29.8566 102.576 31.8917C101.701 33.9442 100.421 35.8015 98.809 37.3533C97.1635 38.9337 95.226 40.184 93.1028 41.0356C88.8181 42.761 84.0242 42.761 79.7394 41.0356C77.6352 40.1919 75.7218 38.94 74.1114 37.3533C72.4321 35.7491 71.1579 33.921 70.2889 31.869C69.4163 29.8036 68.9727 27.5848 68.9846 25.3453C68.9846 23.0308 69.4194 20.8524 70.2889 18.8102C71.1584 16.768 72.4326 14.9435 74.1114 13.3366C75.722 11.7501 77.6353 10.4983 79.7394 9.65431C84.0356 7.92903 88.8396 7.92903 93.1358 9.65431C95.2535 10.4977 97.1818 11.7493 98.809 13.3366C100.417 14.8896 101.694 16.7471 102.565 18.7989C103.434 20.8482 103.868 23.0304 103.868 25.3453ZM86.4373 34.8548C88.9035 34.8548 90.9429 33.9553 92.5558 32.1564C94.1686 30.3575 94.9748 28.0871 94.9743 25.3453C94.9743 22.6324 94.1569 20.3694 92.5221 18.5562C90.8873 16.743 88.859 15.8362 86.4373 15.8358C83.9702 15.8358 81.9307 16.7388 80.3188 18.5449C78.7069 20.3509 77.9007 22.6177 77.9003 25.3453C77.9003 28.1174 78.6952 30.3951 80.2851 32.1785C81.875 33.9618 83.9258 34.8539 86.4373 34.8548Z" fill="white"/>
<path d="M107.613 41.4673V9.09009H116.418V23.7952L126.739 9.09009H137.104L125.044 24.8807L138.151 41.4673H127.051L116.418 26.9374V41.4673H107.613Z" fill="white"/>
<path d="M142.086 41.4673V9.09009H150.893V23.7952L161.213 9.09009H171.575L159.516 24.8807L172.623 41.4673H161.523L150.893 26.9374V41.4673H142.086Z" fill="white"/>
<path d="M182.007 41.467V26.695L170.594 9.09106H180.806L185.197 17.4288C185.227 17.473 185.271 17.5545 185.332 17.6721C185.762 18.4595 186.084 19.2999 186.291 20.1713C186.439 19.4486 186.759 18.6449 187.249 17.7604C187.339 17.5986 187.399 17.4872 187.427 17.4262L191.774 9.08838H202.001L190.588 26.6924V41.4643L182.007 41.467Z" fill="white"/>
<path d="M53.6006 26.4431L45.2461 34.7328L60.1179 48.8964L68.4724 40.6074L53.6006 26.4431Z" fill="#0090F9"/>
<path d="M24.6538 48.9997V32.4204L16.7096 24.5392L24.6538 16.6579V0.0786133L0 24.5392L24.6538 48.9997Z" fill="#0090F9"/>
<path d="M59.8196 0L27.4689 32.0724V17.2785L33.1555 22.9092L41.5234 14.6195L27.1172 0.351585V15.9918V16.9302V32.4214V35.5475V49L68.1612 8.28965L59.8196 0Z" fill="#0090F9"/>
</svg>
